# xmcd
#
# Track frame offsets:
#	150
#	14433
#	30027
#	42261
#	57307
#	69760
#	82645
#	94680
#	107003
#	119403
#	134966
#	144902
#	158554
#
# Disc length: 2340 seconds
#
# Revision: 1
# Processed by: cddbd v1.5.1PL0 Copyright (c) Steve Scherf et al.
# Submitted via: audiograbber 1.83.01
#
DISCID=9a09220d
DTITLE=Oldtimer - Busk Records bcd247
DYEAR=2004
DGENRE=Country
TTITLE0=Red, Red Porches
TTITLE1=Lonley Rose
TTITLE2=Wanna Be Your Lover
TTITLE3=Some Kind Of Looser
TTITLE4=One More Chance
TTITLE5=My Favourite Songs
TTITLE6=If I Only
TTITLE7=Living Shadows
TTITLE8=Free, Free Cowboy
TTITLE9=Wish Upon A Star
TTITLE10=Little Angel
TTITLE11=Cause Of You
TTITLE12=Let's Share These Moments
EXTD=
EXTT0=
EXTT1=
EXTT2=
EXTT3=
EXTT4=
EXTT5=
EXTT6=
EXTT7=
EXTT8=
EXTT9=
EXTT10=
EXTT11=
EXTT12=
PLAYORDER=
